<svg viewBox="0 0 1200 480" xmlns="http://www.w3.org/2000/svg" font-family="'JetBrains Mono','Cascadia Mono','Consolas',monospace">
<rect width="1200" height="480" fill="#0a0a14"/>
<line x1="0" y1="0" x2="1200" y2="0" stroke="#15152a" stroke-width="0.5" opacity="0.4"/>
<line x1="0" y1="8" x2="1200" y2="8" stroke="#15152a" stroke-width="0.5" opacity="0.4"/>
<line x1="0" y1="16" x2="1200" y2="16" stroke="#15152a" stroke-width="0.5" opacity="0.4"/>
<line x1="0" y1="24" x2="1200" y2="24" stroke="#15152a" stroke-width="0.5" opacity="0.4"/>
<line x1="0" y1="32" x2="1200" y2="32" stroke="#15152a" stroke-width="0.5" opacity="0.4"/>
<line x1="0" y1="40" x2="1200" y2="40" stroke="#15152a" stroke-width="0.5" opacity="0.4"/>
<line x1="0" y1="48" x2="1200" y2="48" stroke="#15152a" stroke-width="0.5" opacity="0.4"/>
<line x1="0" y1="56" x2="1200" y2="56" stroke="#15152a" stroke-width="0.5" opacity="0.4"/>
<line x1="0" y1="64" x2="1200" y2="64" stroke="#15152a" stroke-width="0.5" opacity="0.4"/>
<line x1="0" y1="72" x2="1200" y2="72" stroke="#15152a" stroke-width="0.5" opacity="0.4"/>
<line x1="0" y1="80" x2="1200" y2="80" stroke="#15152a" stroke-width="0.5" opacity="0.4"/>
<line x1="0" y1="88" x2="1200" y2="88" stroke="#15152a" stroke-width="0.5" opacity="0.4"/>
<line x1="0" y1="96" x2="1200" y2="96" stroke="#15152a" stroke-width="0.5" opacity="0.4"/>
<line x1="0" y1="104" x2="1200" y2="104" stroke="#15152a" stroke-width="0.5" opacity="0.4"/>
<line x1="0" y1="112" x2="1200" y2="112" stroke="#15152a" stroke-width="0.5" opacity="0.4"/>
<line x1="0" y1="120" x2="1200" y2="120" stroke="#15152a" stroke-width="0.5" opacity="0.4"/>
<line x1="0" y1="128" x2="1200" y2="128" stroke="#15152a" stroke-width="0.5" opacity="0.4"/>
<line x1="0" y1="136" x2="1200" y2="136" stroke="#15152a" stroke-width="0.5" opacity="0.4"/>
<line x1="0" y1="144" x2="1200" y2="144" stroke="#15152a" stroke-width="0.5" opacity="0.4"/>
<line x1="0" y1="152" x2="1200" y2="152" stroke="#15152a" stroke-width="0.5" opacity="0.4"/>
<line x1="0" y1="160" x2="1200" y2="160" stroke="#15152a" stroke-width="0.5" opacity="0.4"/>
<line x1="0" y1="168" x2="1200" y2="168" stroke="#15152a" stroke-width="0.5" opacity="0.4"/>
<line x1="0" y1="176" x2="1200" y2="176" stroke="#15152a" stroke-width="0.5" opacity="0.4"/>
<line x1="0" y1="184" x2="1200" y2="184" stroke="#15152a" stroke-width="0.5" opacity="0.4"/>
<line x1="0" y1="192" x2="1200" y2="192" stroke="#15152a" stroke-width="0.5" opacity="0.4"/>
<line x1="0" y1="200" x2="1200" y2="200" stroke="#15152a" stroke-width="0.5" opacity="0.4"/>
<line x1="0" y1="208" x2="1200" y2="208" stroke="#15152a" stroke-width="0.5" opacity="0.4"/>
<line x1="0" y1="216" x2="1200" y2="216" stroke="#15152a" stroke-width="0.5" opacity="0.4"/>
<line x1="0" y1="224" x2="1200" y2="224" stroke="#15152a" stroke-width="0.5" opacity="0.4"/>
<line x1="0" y1="232" x2="1200" y2="232" stroke="#15152a" stroke-width="0.5" opacity="0.4"/>
<line x1="0" y1="240" x2="1200" y2="240" stroke="#15152a" stroke-width="0.5" opacity="0.4"/>
<line x1="0" y1="248" x2="1200" y2="248" stroke="#15152a" stroke-width="0.5" opacity="0.4"/>
<line x1="0" y1="256" x2="1200" y2="256" stroke="#15152a" stroke-width="0.5" opacity="0.4"/>
<line x1="0" y1="264" x2="1200" y2="264" stroke="#15152a" stroke-width="0.5" opacity="0.4"/>
<line x1="0" y1="272" x2="1200" y2="272" stroke="#15152a" stroke-width="0.5" opacity="0.4"/>
<line x1="0" y1="280" x2="1200" y2="280" stroke="#15152a" stroke-width="0.5" opacity="0.4"/>
<line x1="0" y1="288" x2="1200" y2="288" stroke="#15152a" stroke-width="0.5" opacity="0.4"/>
<line x1="0" y1="296" x2="1200" y2="296" stroke="#15152a" stroke-width="0.5" opacity="0.4"/>
<line x1="0" y1="304" x2="1200" y2="304" stroke="#15152a" stroke-width="0.5" opacity="0.4"/>
<line x1="0" y1="312" x2="1200" y2="312" stroke="#15152a" stroke-width="0.5" opacity="0.4"/>
<line x1="0" y1="320" x2="1200" y2="320" stroke="#15152a" stroke-width="0.5" opacity="0.4"/>
<line x1="0" y1="328" x2="1200" y2="328" stroke="#15152a" stroke-width="0.5" opacity="0.4"/>
<line x1="0" y1="336" x2="1200" y2="336" stroke="#15152a" stroke-width="0.5" opacity="0.4"/>
<line x1="0" y1="344" x2="1200" y2="344" stroke="#15152a" stroke-width="0.5" opacity="0.4"/>
<line x1="0" y1="352" x2="1200" y2="352" stroke="#15152a" stroke-width="0.5" opacity="0.4"/>
<line x1="0" y1="360" x2="1200" y2="360" stroke="#15152a" stroke-width="0.5" opacity="0.4"/>
<line x1="0" y1="368" x2="1200" y2="368" stroke="#15152a" stroke-width="0.5" opacity="0.4"/>
<line x1="0" y1="376" x2="1200" y2="376" stroke="#15152a" stroke-width="0.5" opacity="0.4"/>
<line x1="0" y1="384" x2="1200" y2="384" stroke="#15152a" stroke-width="0.5" opacity="0.4"/>
<line x1="0" y1="392" x2="1200" y2="392" stroke="#15152a" stroke-width="0.5" opacity="0.4"/>
<line x1="0" y1="400" x2="1200" y2="400" stroke="#15152a" stroke-width="0.5" opacity="0.4"/>
<line x1="0" y1="408" x2="1200" y2="408" stroke="#15152a" stroke-width="0.5" opacity="0.4"/>
<line x1="0" y1="416" x2="1200" y2="416" stroke="#15152a" stroke-width="0.5" opacity="0.4"/>
<line x1="0" y1="424" x2="1200" y2="424" stroke="#15152a" stroke-width="0.5" opacity="0.4"/>
<line x1="0" y1="432" x2="1200" y2="432" stroke="#15152a" stroke-width="0.5" opacity="0.4"/>
<line x1="0" y1="440" x2="1200" y2="440" stroke="#15152a" stroke-width="0.5" opacity="0.4"/>
<line x1="0" y1="448" x2="1200" y2="448" stroke="#15152a" stroke-width="0.5" opacity="0.4"/>
<line x1="0" y1="456" x2="1200" y2="456" stroke="#15152a" stroke-width="0.5" opacity="0.4"/>
<line x1="0" y1="464" x2="1200" y2="464" stroke="#15152a" stroke-width="0.5" opacity="0.4"/>
<line x1="0" y1="472" x2="1200" y2="472" stroke="#15152a" stroke-width="0.5" opacity="0.4"/>
<rect x="60.00" y="62.15" width="8.28" height="115.70" fill="#4ecdc4" opacity="1.0" rx="1"/>
<rect x="71.28" y="71.30" width="8.28" height="97.41" fill="#4ecdc4" opacity="1.0" rx="1"/>
<rect x="82.56" y="60.13" width="8.28" height="119.74" fill="#e63946" opacity="0.85" rx="1"/>
<rect x="93.84" y="58.86" width="8.28" height="122.28" fill="#e63946" opacity="0.85" rx="1"/>
<rect x="105.12" y="52.80" width="8.28" height="134.40" fill="#e63946" opacity="0.85" rx="1"/>
<rect x="116.41" y="52.80" width="8.28" height="134.40" fill="#e63946" opacity="0.85" rx="1"/>
<rect x="127.69" y="52.80" width="8.28" height="134.40" fill="#4ecdc4" opacity="1.0" rx="1"/>
<rect x="138.97" y="77.87" width="8.28" height="84.27" fill="#4ecdc4" opacity="1.0" rx="1"/>
<rect x="150.25" y="77.08" width="8.28" height="85.85" fill="#4ecdc4" opacity="1.0" rx="1"/>
<rect x="161.53" y="94.19" width="8.28" height="51.62" fill="#4ecdc4" opacity="1.0" rx="1"/>
<rect x="172.81" y="95.34" width="8.28" height="49.33" fill="#4ecdc4" opacity="1.0" rx="1"/>
<rect x="184.09" y="92.07" width="8.28" height="55.86" fill="#4ecdc4" opacity="1.0" rx="1"/>
<rect x="195.38" y="105.94" width="8.28" height="28.13" fill="#4ecdc4" opacity="1.0" rx="1"/>
<rect x="206.66" y="101.46" width="8.28" height="37.09" fill="#4ecdc4" opacity="1.0" rx="1"/>
<rect x="217.94" y="88.61" width="8.28" height="62.78" fill="#4ecdc4" opacity="1.0" rx="1"/>
<rect x="229.22" y="89.29" width="8.28" height="61.42" fill="#4ecdc4" opacity="1.0" rx="1"/>
<rect x="240.50" y="95.95" width="8.28" height="48.09" fill="#4ecdc4" opacity="1.0" rx="1"/>
<rect x="251.78" y="86.44" width="8.28" height="67.12" fill="#4ecdc4" opacity="1.0" rx="1"/>
<rect x="263.06" y="82.54" width="8.28" height="74.92" fill="#4ecdc4" opacity="1.0" rx="1"/>
<rect x="274.34" y="106.47" width="8.28" height="27.06" fill="#4ecdc4" opacity="1.0" rx="1"/>
<rect x="285.62" y="91.83" width="8.28" height="56.35" fill="#4ecdc4" opacity="1.0" rx="1"/>
<rect x="296.91" y="101.21" width="8.28" height="37.59" fill="#4ecdc4" opacity="1.0" rx="1"/>
<rect x="308.19" y="115.80" width="8.28" height="8.40" fill="#4ecdc4" opacity="1.0" rx="1"/>
<rect x="319.47" y="115.80" width="8.28" height="8.40" fill="#e63946" opacity="0.85" rx="1"/>
<rect x="330.75" y="112.06" width="8.28" height="15.88" fill="#e63946" opacity="0.85" rx="1"/>
<rect x="342.03" y="115.80" width="8.28" height="8.40" fill="#e63946" opacity="0.85" rx="1"/>
<rect x="353.31" y="115.80" width="8.28" height="8.40" fill="#e63946" opacity="0.85" rx="1"/>
<rect x="364.59" y="115.80" width="8.28" height="8.40" fill="#4ecdc4" opacity="1.0" rx="1"/>
<rect x="375.88" y="106.21" width="8.28" height="27.59" fill="#4ecdc4" opacity="1.0" rx="1"/>
<rect x="387.16" y="105.14" width="8.28" height="29.71" fill="#4ecdc4" opacity="1.0" rx="1"/>
<rect x="398.44" y="92.51" width="8.28" height="54.99" fill="#4ecdc4" opacity="1.0" rx="1"/>
<rect x="409.72" y="87.67" width="8.28" height="64.67" fill="#e63946" opacity="0.85" rx="1"/>
<rect x="421.00" y="87.30" width="8.28" height="65.40" fill="#e63946" opacity="0.85" rx="1"/>
<rect x="432.28" y="73.09" width="8.28" height="93.82" fill="#e63946" opacity="0.85" rx="1"/>
<rect x="443.56" y="86.99" width="8.28" height="66.03" fill="#e63946" opacity="0.85" rx="1"/>
<rect x="454.84" y="83.29" width="8.28" height="73.42" fill="#e63946" opacity="0.85" rx="1"/>
<rect x="466.12" y="78.04" width="8.28" height="83.93" fill="#e63946" opacity="0.85" rx="1"/>
<rect x="477.41" y="85.25" width="8.28" height="69.51" fill="#e63946" opacity="0.85" rx="1"/>
<rect x="488.69" y="80.25" width="8.28" height="79.50" fill="#4ecdc4" opacity="1.0" rx="1"/>
<rect x="499.97" y="87.01" width="8.28" height="65.98" fill="#4ecdc4" opacity="1.0" rx="1"/>
<rect x="511.25" y="81.41" width="8.28" height="77.18" fill="#4ecdc4" opacity="1.0" rx="1"/>
<rect x="522.53" y="93.58" width="8.28" height="52.84" fill="#4ecdc4" opacity="1.0" rx="1"/>
<rect x="533.81" y="82.91" width="8.28" height="74.18" fill="#4ecdc4" opacity="1.0" rx="1"/>
<rect x="545.09" y="74.37" width="8.28" height="91.26" fill="#e63946" opacity="0.85" rx="1"/>
<rect x="556.38" y="72.74" width="8.28" height="94.52" fill="#e63946" opacity="0.85" rx="1"/>
<rect x="567.66" y="63.09" width="8.28" height="113.83" fill="#e63946" opacity="0.85" rx="1"/>
<rect x="578.94" y="62.64" width="8.28" height="114.73" fill="#e63946" opacity="0.85" rx="1"/>
<rect x="590.22" y="57.04" width="8.28" height="125.92" fill="#4ecdc4" opacity="1.0" rx="1"/>
<rect x="601.50" y="52.80" width="8.28" height="134.40" fill="#4ecdc4" opacity="1.0" rx="1"/>
<rect x="612.78" y="60.87" width="8.28" height="118.26" fill="#4ecdc4" opacity="1.0" rx="1"/>
<rect x="624.06" y="67.00" width="8.28" height="106.00" fill="#4ecdc4" opacity="1.0" rx="1"/>
<rect x="635.34" y="78.34" width="8.28" height="83.32" fill="#4ecdc4" opacity="1.0" rx="1"/>
<rect x="646.62" y="84.16" width="8.28" height="71.68" fill="#4ecdc4" opacity="1.0" rx="1"/>
<rect x="657.91" y="73.55" width="8.28" height="92.90" fill="#4ecdc4" opacity="1.0" rx="1"/>
<rect x="669.19" y="85.35" width="8.28" height="69.29" fill="#4ecdc4" opacity="1.0" rx="1"/>
<rect x="680.47" y="88.78" width="8.28" height="62.45" fill="#4ecdc4" opacity="1.0" rx="1"/>
<rect x="691.75" y="100.23" width="8.28" height="39.54" fill="#4ecdc4" opacity="1.0" rx="1"/>
<rect x="703.03" y="85.04" width="8.28" height="69.91" fill="#4ecdc4" opacity="1.0" rx="1"/>
<rect x="714.31" y="97.41" width="8.28" height="45.18" fill="#4ecdc4" opacity="1.0" rx="1"/>
<rect x="725.59" y="90.24" width="8.28" height="59.52" fill="#4ecdc4" opacity="1.0" rx="1"/>
<rect x="736.88" y="74.21" width="8.28" height="91.58" fill="#e63946" opacity="0.85" rx="1"/>
<rect x="748.16" y="84.10" width="8.28" height="71.80" fill="#e63946" opacity="0.85" rx="1"/>
<rect x="759.44" y="89.35" width="8.28" height="61.31" fill="#e63946" opacity="0.85" rx="1"/>
<rect x="770.72" y="91.26" width="8.28" height="57.48" fill="#e63946" opacity="0.85" rx="1"/>
<rect x="782.00" y="93.86" width="8.28" height="52.27" fill="#e63946" opacity="0.85" rx="1"/>
<rect x="793.28" y="102.76" width="8.28" height="34.48" fill="#e63946" opacity="0.85" rx="1"/>
<rect x="804.56" y="115.80" width="8.28" height="8.40" fill="#4ecdc4" opacity="1.0" rx="1"/>
<rect x="815.84" y="115.80" width="8.28" height="8.40" fill="#4ecdc4" opacity="1.0" rx="1"/>
<rect x="827.12" y="115.80" width="8.28" height="8.40" fill="#4ecdc4" opacity="1.0" rx="1"/>
<rect x="838.41" y="115.80" width="8.28" height="8.40" fill="#4ecdc4" opacity="1.0" rx="1"/>
<rect x="849.69" y="115.80" width="8.28" height="8.40" fill="#4ecdc4" opacity="1.0" rx="1"/>
<rect x="860.97" y="106.92" width="8.28" height="26.15" fill="#e63946" opacity="0.85" rx="1"/>
<rect x="872.25" y="102.03" width="8.28" height="35.93" fill="#e63946" opacity="0.85" rx="1"/>
<rect x="883.53" y="108.92" width="8.28" height="22.16" fill="#e63946" opacity="0.85" rx="1"/>
<rect x="894.81" y="93.41" width="8.28" height="53.18" fill="#4ecdc4" opacity="1.0" rx="1"/>
<rect x="906.09" y="94.29" width="8.28" height="51.43" fill="#4ecdc4" opacity="1.0" rx="1"/>
<rect x="917.38" y="77.42" width="8.28" height="85.16" fill="#4ecdc4" opacity="1.0" rx="1"/>
<rect x="928.66" y="87.21" width="8.28" height="65.59" fill="#4ecdc4" opacity="1.0" rx="1"/>
<rect x="939.94" y="92.29" width="8.28" height="55.43" fill="#4ecdc4" opacity="1.0" rx="1"/>
<rect x="951.22" y="94.24" width="8.28" height="51.53" fill="#e63946" opacity="0.85" rx="1"/>
<rect x="962.50" y="88.24" width="8.28" height="63.51" fill="#e63946" opacity="0.85" rx="1"/>
<rect x="973.78" y="97.21" width="8.28" height="45.57" fill="#e63946" opacity="0.85" rx="1"/>
<rect x="985.06" y="89.21" width="8.28" height="61.57" fill="#e63946" opacity="0.85" rx="1"/>
<rect x="996.34" y="79.52" width="8.28" height="80.97" fill="#e63946" opacity="0.85" rx="1"/>
<rect x="1007.62" y="88.17" width="8.28" height="63.67" fill="#e63946" opacity="0.85" rx="1"/>
<rect x="1018.91" y="86.92" width="8.28" height="66.15" fill="#4ecdc4" opacity="1.0" rx="1"/>
<rect x="1030.19" y="60.30" width="8.28" height="119.41" fill="#4ecdc4" opacity="1.0" rx="1"/>
<rect x="1041.47" y="65.27" width="8.28" height="109.47" fill="#e63946" opacity="0.85" rx="1"/>
<rect x="1052.75" y="69.22" width="8.28" height="101.56" fill="#e63946" opacity="0.85" rx="1"/>
<rect x="1064.03" y="65.44" width="8.28" height="109.12" fill="#e63946" opacity="0.85" rx="1"/>
<rect x="1075.31" y="61.44" width="8.28" height="117.12" fill="#e63946" opacity="0.85" rx="1"/>
<rect x="1086.59" y="52.80" width="8.28" height="134.40" fill="#e63946" opacity="0.85" rx="1"/>
<rect x="1097.88" y="52.80" width="8.28" height="134.40" fill="#e63946" opacity="0.85" rx="1"/>
<rect x="1109.16" y="62.46" width="8.28" height="115.08" fill="#e63946" opacity="0.85" rx="1"/>
<rect x="1120.44" y="78.26" width="8.28" height="83.48" fill="#4ecdc4" opacity="1.0" rx="1"/>
<rect x="1131.72" y="77.38" width="8.28" height="85.23" fill="#4ecdc4" opacity="1.0" rx="1"/>
<line x1="80.6" y1="44" x2="126.7" y2="196" stroke="#e63946" stroke-width="2.5" opacity="0.55"/>
<line x1="80.6" y1="196" x2="126.7" y2="44" stroke="#e63946" stroke-width="2.5" opacity="0.55"/>
<line x1="317.5" y1="44" x2="363.6" y2="196" stroke="#e63946" stroke-width="2.5" opacity="0.55"/>
<line x1="317.5" y1="196" x2="363.6" y2="44" stroke="#e63946" stroke-width="2.5" opacity="0.55"/>
<line x1="407.7" y1="44" x2="487.7" y2="196" stroke="#e63946" stroke-width="2.5" opacity="0.55"/>
<line x1="407.7" y1="196" x2="487.7" y2="44" stroke="#e63946" stroke-width="2.5" opacity="0.55"/>
<line x1="543.1" y1="44" x2="589.2" y2="196" stroke="#e63946" stroke-width="2.5" opacity="0.55"/>
<line x1="543.1" y1="196" x2="589.2" y2="44" stroke="#e63946" stroke-width="2.5" opacity="0.55"/>
<line x1="734.9" y1="44" x2="803.6" y2="196" stroke="#e63946" stroke-width="2.5" opacity="0.55"/>
<line x1="734.9" y1="196" x2="803.6" y2="44" stroke="#e63946" stroke-width="2.5" opacity="0.55"/>
<line x1="859.0" y1="44" x2="893.8" y2="196" stroke="#e63946" stroke-width="2.5" opacity="0.55"/>
<line x1="859.0" y1="196" x2="893.8" y2="44" stroke="#e63946" stroke-width="2.5" opacity="0.55"/>
<line x1="949.2" y1="44" x2="1017.9" y2="196" stroke="#e63946" stroke-width="2.5" opacity="0.55"/>
<line x1="949.2" y1="196" x2="1017.9" y2="44" stroke="#e63946" stroke-width="2.5" opacity="0.55"/>
<line x1="1039.5" y1="44" x2="1119.4" y2="196" stroke="#e63946" stroke-width="2.5" opacity="0.55"/>
<line x1="1039.5" y1="196" x2="1119.4" y2="44" stroke="#e63946" stroke-width="2.5" opacity="0.55"/>
<text x="600.0" y="320" font-weight="900" font-size="138" fill="#f4e4bc" text-anchor="middle" letter-spacing="-6">dead_cut</text>
<text x="600.0" y="362" font-size="20" fill="#7a7a8e" text-anchor="middle" letter-spacing="2">AUTO-EDITOR FOR LONG VODS &#8594; TIGHT CUTS OF THE ACTUAL CONTENT</text>
<text x="190" y="425" font-size="14" fill="#7a7a8e" text-anchor="end" letter-spacing="1">SOURCE</text>
<rect x="205" y="410" width="430" height="16" fill="#4ecdc4" opacity="0.45" rx="2"/>
<text x="645" y="425" font-size="14" fill="#4ecdc4" letter-spacing="1">45:27</text>
<text x="725" y="425" font-size="20" fill="#f4e4bc" text-anchor="middle">&#8594;</text>
<text x="810" y="425" font-size="14" fill="#7a7a8e" text-anchor="end" letter-spacing="1">CUT</text>
<rect x="822" y="410" width="106" height="16" fill="#4ecdc4" rx="2"/>
<text x="938" y="425" font-size="14" fill="#4ecdc4" letter-spacing="1">11:12</text>
</svg>